Coordinates
version=1
nRows=16
nColumns=33
inDegrees=yes

Units are S.I. units (second, meters, Newtons, ...)
Angles are in degrees.

endheader
time	ground_thorax_rot_x	ground_thorax_rot_y	ground_thorax_rot_z	ground_thorax_tx	ground_thorax_ty	ground_thorax_tz	clav_prot_r	clav_elev_r	scapula_abduction_r	scapula_elevation_r	scapula_upward_rot_r	scapula_winging_r	shoulder_elv_r	plane_of_elev_r	axial_rot_r	elbow_flexion_r	pro_sup_r	wrist_flex_r	wrist_dev_r	clav_prot_l	clav_elev_l	scapula_abduction_l	scapula_elevation_l	scapula_upward_rot_l	scapula_winging_l	shoulder_elv_l	plane_of_elev_l	axial_rot_l	elbow_flexion_l	pro_sup_l	wrist_flex_l	wrist_dev_l
      1.61000000	      1.90948336	      6.26331229	     12.31486975	     -0.11495760	      1.03443856	      0.03565053	      2.66990492	     11.42809824	     14.98046331	      7.20871843	     23.11720182	     -9.61719653	     20.08969810	    -74.35902340	     56.71987966	     62.83051268	    -20.44021964	     69.89097443	    -24.99999983	     14.43059201	     -5.91484903	    -22.55856900	    -19.99657150	    -44.04613746	      2.25658881	     62.71762037	    -33.07296437	     -0.23917131	     70.91721673	     13.27893571	      6.96187362	    -24.99999983
      1.62000000	      2.07898970	      6.26573293	     12.31301434	     -0.11512025	      1.03439640	      0.03579364	      2.63854002	     11.63377511	     15.08930426	      7.28705847	     23.40809037	     -9.69629059	     21.13966223	    -74.60629014	     56.63372987	     64.24420021	    -20.42521566	     66.89156317	    -24.99999983	     14.57606376	     -6.17248001	    -22.71465436	    -19.62207915	    -43.76354760	      2.39842351	     62.91808406	    -32.65227469	     -0.21795611	     70.85100354	     12.57430525	      9.17678096	    -24.99999983
      1.63000000	      1.92540374	      6.07545454	     12.46435588	     -0.11511413	      1.03436980	      0.03578969	      2.61009436	     11.66362956	     15.24932013	      7.22592016	     23.66665758	     -9.77966592	     21.27480966	    -74.32122011	     56.52957297	     64.56095283	    -20.36816553	     66.89165802	    -24.99999983	     14.66701825	     -6.17260306	    -22.80787487	    -19.52205539	    -43.55058127	      2.47900418	     63.13165876	    -32.48743425	     -0.17309656	     70.92879585	     12.54860031	      9.20723426	    -24.98758655
      1.64000000	      1.98336944	      5.93909334	     12.38828191	     -0.11526121	      1.03414332	      0.03580026	      2.66787257	     11.66292048	     15.51078485	      7.16515554	     23.83710201	     -9.87387166	     23.08158011	    -74.70653408	     56.36859164	     66.59320949	    -18.18849890	     61.11369724	    -24.99999983	     14.80430880	     -6.48163876	    -22.98806228	    -19.15810991	    -43.39580920	      2.60750999	     63.38150553	    -32.18060160	      0.26842738	     71.49358757	     11.47579101	     12.39204037	    -22.72473505
      1.65000000	      1.84962030	      5.76889112	     12.52941444	     -0.11532147	      1.03414405	      0.03569556	      2.67712647	     11.67086995	     15.73929960	      7.08960226	     24.08091111	     -9.97129045	     23.21994408	    -74.36143822	     56.27728413	     66.84562845	    -18.12202467	     61.09300344	    -24.99999983	     14.93500200	     -6.53505812	    -23.13443768	    -18.98996953	    -43.14571769	      2.71920882	     63.62844628	    -31.91899464	      0.18495817	     71.37700628	     11.48667197	     12.40828168	    -22.68033279
      1.66000000	      1.73731548	      5.64145368	     12.54602597	     -0.11542278	      1.03405674	      0.03555556	      2.71602126	     11.66864225	     16.03990161	      7.00133136	     24.33459655	    -10.09070594	     23.36645814	    -73.96786305	     56.18782170	     67.18004034	    -18.06670556	     60.98247950	    -24.99999983	     15.08848457	     -6.63016821	    -23.30731660	    -18.75287600	    -42.83575103	      2.86225277	     63.90627850	    -31.54596245	      0.07084880	     71.21995448	     11.48531795	     12.47146652	    -22.57071516
      1.67000000	      1.92066980	      5.60524425	     12.52689306	     -0.11572315	      1.03403391	      0.03538263	      2.79108675	     11.76304701	     16.48829983	      6.95184735	     24.71972233	    -10.26948188	     24.95073070	    -74.38131378	     56.11310561	     69.08547695	    -16.62765753	     53.31072241	    -24.99999983	     15.29328164	     -7.02915375	    -23.61183051	    -18.32213847	    -42.72251944	      3.04579721	     64.09224813	    -30.82951945	      0.27196926	     71.37201197	     10.29155395	     15.37719340	    -18.78602509
      1.68000000	      1.76700498	      5.41561943	     12.66634304	     -0.11564287	      1.03375059	      0.03516721	      2.80420153	     11.72732636	     16.74254585	      6.84107438	     24.96256441	    -10.37094493	     25.10082400	    -73.96353333	     56.00158412	     69.32208622	    -16.52480879	     53.28473418	    -24.99999983	     15.42805896	     -7.10635772	    -23.76692577	    -18.12865410	    -42.46764205	      3.16374979	     64.35340513	    -30.56686263	      0.19975655	     71.19675227	     10.29646921	     15.39107298	    -18.73711600
      1.69000000	      1.73591194	      5.39885542	     12.62214218	     -0.11593133	      1.03374137	      0.03487849	      2.88024474	     11.44362681	     16.92674165	      6.62173789	     24.88561846	    -10.40203964	     27.13233053	    -73.94345839	     55.82148716	     71.00768200	    -12.34308803	     45.27236353	    -24.99999983	     15.63229270	     -7.27284714	    -24.09583516	    -17.93673510	    -42.40843939	      3.34564954	     64.68627549	    -29.53262937	      0.37678136	     70.87654951	      8.71902114	     17.91608927	    -15.79800178
      1.70000000	      1.67415216	      5.31182911	     12.61184376	     -0.11597005	      1.03376495	      0.03450266	      2.93889721	     11.29126233	     17.27300475	      6.42419256	     25.08872622	    -10.51901570	     27.33349699	    -73.41926546	     55.67047865	     70.95797932	    -12.21071741	     45.02558967	    -24.99999983	     15.80628147	     -7.54474498	    -24.28846397	    -17.52763720	    -42.07527355	      3.49877506	     64.96723116	    -29.06189817	      0.24614705	     70.39924460	      8.76367339	     17.87498013	    -15.72575968
      1.71000000	      1.62698896	      5.26411330	     12.69508697	     -0.11602140	      1.03360773	      0.03421256	      2.89311006	     11.23145755	     17.65745630	      6.20978796	     25.59902303	    -10.68486588	     27.82942765	    -73.28830565	     55.61085992	     71.79608021	    -11.19252800	     39.90504306	    -24.99999983	     16.09115502	     -7.77791320	    -24.69486804	    -17.18519897	    -41.82168408	      3.74750166	     65.01504773	    -28.38467526	      0.34511555	     69.82545071	      7.96101492	     18.80764665	    -14.48676192
      1.72000000	      1.53154689	      5.19110602	     12.68548428	     -0.11607274	      1.03337244	      0.03382695	      3.02100638	     11.01771334	     18.07774314	      5.98816872	     25.71401904	    -10.79977194	     27.98303369	    -72.67500608	     55.48912040	     71.69614735	    -11.10239512	     39.72036181	    -24.99999983	     16.28497046	     -8.03204895	    -24.90963781	    -16.76882786	    -41.44069163	      3.90889171	     65.31922161	    -27.87522079	      0.16734990	     69.19628784	      7.99441043	     18.85870698	    -14.32411364
      1.73000000	      1.53602790	      5.11973847	     12.71040323	     -0.11607340	      1.03354473	      0.03330102	      3.12668977	     10.71016842	     18.47846930	      5.69224887	     25.82166738	    -10.90831437	     28.26485440	    -72.09118905	     55.23015589	     71.33965712	    -11.13775733	     39.09644211	    -24.99999983	     16.44358575	     -8.35285750	    -25.06436720	    -16.29579504	    -41.05964585	      4.04268232	     65.42553488	    -27.17841455	      0.03916680	     68.28445561	      7.93605726	     19.08280331	    -13.95746963
      1.74000000	      1.34681712	      5.00280706	     12.90210669	     -0.11626279	      1.03266843	      0.03281309	      3.40103522	     10.49858635	     19.11102202	      5.49235449	     25.86665115	    -11.08219320	     28.57187086	    -71.65614731	     55.03668208	     72.11765461	    -11.13647818	     33.84956384	    -24.99999983	     16.77424156	     -8.15349581	    -25.52944260	    -16.25389738	    -40.61244563	      4.35196971	     65.12959789	    -26.19963462	      0.21398882	     67.39491816	      6.30434299	     21.33470822	    -11.81403214
      1.75000000	      1.35197022	      5.05628352	     12.89764292	     -0.11638762	      1.03249975	      0.03253867	      3.38773577	     10.26359633	     19.13783674	      5.30325334	     25.84012648	    -11.06914712	     29.23154204	    -70.87254556	     54.45954523	     72.54540860	     -7.98497013	     28.65218584	    -24.99999983	     17.20494738	     -8.74289754	    -26.22606182	    -15.70076480	    -40.62337775	      4.69480632	     65.37301059	    -25.34329780	      0.36302754	     66.42298250	      4.62076792	     22.11283776	    -10.12721028
      1.76000000	      1.28189076	      5.03943476	     12.91970851	     -0.11634959	      1.03223154	      0.03201980	      3.56752410	      9.88342041	     19.66710049	      4.95476522	     25.91841996	    -11.20052086	     29.34768385	    -70.19881245	     54.33002159	     71.98998715	     -8.04643585	     28.37594425	    -24.99999983	     17.41322439	     -9.10639257	    -26.45082473	    -15.17062461	    -40.20293385	      4.85619863	     65.61239556	    -24.69871746	      0.07309239	     65.32753545	      4.72799957	     22.10585369	     -9.92659871
